<svg width="48" height="13" viewBox="0 0 48 13" fill="none" xmlns="http://www.w3.org/2000/svg">
<path d="M20.044 10.688C19.212 10.688 18.492 10.508 17.884 10.148C17.284 9.78 16.82 9.272 16.492 8.624C16.164 7.968 16 7.212 16 6.356C16 5.492 16.164 4.736 16.492 4.088C16.82 3.432 17.284 2.92 17.884 2.552C18.492 2.184 19.212 2 20.044 2C21.028 2 21.832 2.24 22.456 2.72C23.08 3.2 23.476 3.872 23.644 4.736H22.228C22.116 4.248 21.876 3.86 21.508 3.572C21.14 3.284 20.648 3.14 20.032 3.14C19.192 3.14 18.528 3.428 18.04 4.004C17.552 4.572 17.308 5.356 17.308 6.356C17.308 7.348 17.552 8.128 18.04 8.696C18.528 9.264 19.192 9.548 20.032 9.548C20.648 9.548 21.14 9.412 21.508 9.14C21.876 8.868 22.116 8.496 22.228 8.024H23.644C23.476 8.856 23.08 9.508 22.456 9.98C21.832 10.452 21.028 10.688 20.044 10.688Z" fill="black"/>
<path d="M26.7222 10.688C26.2182 10.688 25.8022 10.604 25.4742 10.436C25.1462 10.268 24.9022 10.048 24.7422 9.776C24.5822 9.496 24.5022 9.192 24.5022 8.864C24.5022 8.288 24.7262 7.832 25.1742 7.496C25.6222 7.16 26.2622 6.992 27.0942 6.992H28.6542V6.884C28.6542 6.42 28.5262 6.072 28.2702 5.84C28.0222 5.608 27.6982 5.492 27.2982 5.492C26.9462 5.492 26.6382 5.58 26.3742 5.756C26.1182 5.924 25.9622 6.176 25.9062 6.512H24.6342C24.6742 6.08 24.8182 5.712 25.0662 5.408C25.3222 5.096 25.6422 4.86 26.0262 4.7C26.4182 4.532 26.8462 4.448 27.3102 4.448C28.1422 4.448 28.7862 4.668 29.2422 5.108C29.6982 5.54 29.9262 6.132 29.9262 6.884V10.544H28.8222L28.7142 9.524C28.5462 9.852 28.3022 10.128 27.9822 10.352C27.6622 10.576 27.2422 10.688 26.7222 10.688ZM26.9742 9.656C27.3182 9.656 27.6062 9.576 27.8382 9.416C28.0782 9.248 28.2622 9.028 28.3902 8.756C28.5262 8.484 28.6102 8.184 28.6422 7.856H27.2262C26.7222 7.856 26.3622 7.944 26.1462 8.12C25.9382 8.296 25.8342 8.516 25.8342 8.78C25.8342 9.052 25.9342 9.268 26.1342 9.428C26.3422 9.58 26.6222 9.656 26.9742 9.656Z" fill="black"/>
<path d="M31.1213 10.544V4.592H32.2613L32.3693 5.72C32.5773 5.328 32.8653 5.02 33.2333 4.796C33.6093 4.564 34.0613 4.448 34.5893 4.448V5.78H34.2413C33.8893 5.78 33.5733 5.84 33.2933 5.96C33.0213 6.072 32.8013 6.268 32.6333 6.548C32.4733 6.82 32.3933 7.2 32.3933 7.688V10.544H31.1213Z" fill="black"/>
<path d="M37.0599 10.544L34.8279 4.592H36.1599L37.8159 9.332L39.4719 4.592H40.7919L38.5719 10.544H37.0599Z" fill="black"/>
<path d="M44.0285 10.688C43.4605 10.688 42.9485 10.56 42.4925 10.304C42.0445 10.04 41.6885 9.676 41.4245 9.212C41.1605 8.74 41.0285 8.192 41.0285 7.568C41.0285 6.944 41.1605 6.4 41.4245 5.936C41.6965 5.464 42.0605 5.1 42.5165 4.844C42.9725 4.58 43.4805 4.448 44.0405 4.448C44.6085 4.448 45.1165 4.58 45.5645 4.844C46.0205 5.1 46.3805 5.464 46.6445 5.936C46.9165 6.4 47.0525 6.944 47.0525 7.568C47.0525 8.192 46.9165 8.74 46.6445 9.212C46.3805 9.676 46.0205 10.04 45.5645 10.304C45.1085 10.56 44.5965 10.688 44.0285 10.688ZM44.0285 9.596C44.3325 9.596 44.6125 9.52 44.8685 9.368C45.1325 9.216 45.3445 8.992 45.5045 8.696C45.6645 8.392 45.7445 8.016 45.7445 7.568C45.7445 7.12 45.6645 6.748 45.5045 6.452C45.3525 6.148 45.1445 5.92 44.8805 5.768C44.6245 5.616 44.3445 5.54 44.0405 5.54C43.7365 5.54 43.4525 5.616 43.1885 5.768C42.9325 5.92 42.7245 6.148 42.5645 6.452C42.4045 6.748 42.3245 7.12 42.3245 7.568C42.3245 8.016 42.4045 8.392 42.5645 8.696C42.7245 8.992 42.9325 9.216 43.1885 9.368C43.4445 9.52 43.7245 9.596 44.0285 9.596Z" fill="black"/>
<path fill-rule="evenodd" clip-rule="evenodd" d="M3.25056 0.871807C0.142118 2.66647 -0.922854 6.641 0.871807 9.74944C2.66647 12.8579 6.641 13.9229 9.74944 12.1282C12.8579 10.3335 13.9229 6.359 12.1282 3.25056C10.3335 0.142118 6.359 -0.922854 3.25056 0.871807ZM3.698 7.43553L1.62781 8.63075C0.552981 6.18134 1.47103 3.26363 3.84137 1.89511C6.21171 0.526597 9.19754 1.1904 10.7814 3.34594L8.71119 4.54116C8.32995 4.11083 7.8282 3.79765 7.26456 3.64662C6.5078 3.44385 5.70148 3.55 5.02298 3.94173C4.34449 4.33346 3.84939 4.97868 3.64662 5.73544C3.4956 6.29907 3.51594 6.8902 3.698 7.43553ZM4.28881 8.45884L2.21862 9.65406C3.6869 11.6523 6.36005 12.3686 8.63075 11.3722L7.43553 9.302C6.8902 9.48406 6.29907 9.5044 5.73544 9.35338C5.1718 9.20235 4.67005 8.88917 4.28881 8.45884ZM8.45884 8.71119L9.65406 10.7814C11.6523 9.3131 12.3686 6.63995 11.3722 4.36925L9.302 5.56447C9.48406 6.1098 9.5044 6.70093 9.35338 7.26456C9.20235 7.8282 8.88917 8.32995 8.45884 8.71119Z" fill="black"/>
</svg>
