<svg width="247" height="65" viewBox="0 0 247 65" fill="none" xmlns="http://www.w3.org/2000/svg">
<path d="M44.2002 48L57.4002 48.7L49.0002 38.3L69.0002 39.3L64.9002 34.2C62.1002 30.7 57.9002 28.5999 53.5002 28.3999L40.3002 27.7L48.7002 38.0999L28.7002 37.0999L32.8002 42.2C35.6002 45.6 39.7002 47.7 44.2002 48Z" fill="#575757"/>
<path d="M15.5 36.3L28.7 37L20.3 26.6L40.3 27.6L36.2 22.5C33.4 19 29.2 16.9 24.8 16.7L11.6 16L20 26.4L0 25.4L4.1 30.5C6.9 34 11.1 36.1 15.5 36.3Z" fill="#575757"/>
<path d="M99.864 51H93.528L106.2 15.912H112.488L125.16 51H118.68L115.848 42.888H102.744L99.864 51ZM108.552 26.376L104.52 37.704H114.072L110.04 26.376C109.912 25.896 109.768 25.416 109.608 24.936C109.448 24.456 109.352 24.04 109.32 23.688C109.256 24.008 109.144 24.424 108.984 24.936C108.856 25.416 108.712 25.896 108.552 26.376ZM143.838 27.288H149.694V51H144.27L143.838 47.832C143.134 48.952 142.078 49.864 140.67 50.568C139.262 51.272 137.758 51.624 136.158 51.624C133.438 51.624 131.31 50.76 129.774 49.032C128.238 47.304 127.47 45 127.47 42.12V27.288H133.326V40.056C133.326 42.296 133.758 43.912 134.622 44.904C135.486 45.896 136.734 46.392 138.366 46.392C140.222 46.392 141.598 45.848 142.494 44.76C143.39 43.64 143.838 41.96 143.838 39.72V27.288ZM153.391 27.288H168.367V32.184H153.391V27.288ZM163.807 51H157.951V19.896H163.807V51ZM170.429 39.096C170.429 36.632 170.973 34.472 172.061 32.616C173.149 30.728 174.653 29.256 176.573 28.2C178.493 27.144 180.669 26.616 183.101 26.616C185.565 26.616 187.741 27.144 189.629 28.2C191.549 29.256 193.053 30.728 194.141 32.616C195.229 34.472 195.773 36.632 195.773 39.096C195.773 41.56 195.229 43.736 194.141 45.624C193.053 47.48 191.549 48.936 189.629 49.992C187.741 51.048 185.565 51.576 183.101 51.576C180.669 51.576 178.493 51.048 176.573 49.992C174.653 48.936 173.149 47.48 172.061 45.624C170.973 43.736 170.429 41.56 170.429 39.096ZM176.285 39.096C176.285 40.536 176.573 41.8 177.149 42.888C177.757 43.976 178.557 44.824 179.549 45.432C180.573 46.04 181.757 46.344 183.101 46.344C184.445 46.344 185.629 46.04 186.653 45.432C187.677 44.824 188.477 43.976 189.053 42.888C189.629 41.8 189.917 40.536 189.917 39.096C189.917 37.624 189.629 36.36 189.053 35.304C188.477 34.216 187.677 33.368 186.653 32.76C185.629 32.152 184.445 31.848 183.101 31.848C181.757 31.848 180.573 32.152 179.549 32.76C178.557 33.368 177.757 34.216 177.149 35.304C176.573 36.36 176.285 37.624 176.285 39.096ZM217.989 51H198.885V46.2L210.693 32.184H198.885V27.288H217.989V32.136L206.037 46.104H217.989V51ZM229.877 51.624C227.381 51.624 225.397 50.952 223.925 49.608C222.485 48.232 221.765 46.44 221.765 44.232C221.765 42.056 222.517 40.328 224.021 39.048C225.557 37.736 227.733 36.968 230.549 36.744L237.653 36.168V35.64C237.653 34.552 237.445 33.688 237.029 33.048C236.645 32.376 236.085 31.896 235.349 31.608C234.613 31.288 233.749 31.128 232.757 31.128C231.029 31.128 229.701 31.48 228.773 32.184C227.845 32.856 227.381 33.816 227.381 35.064H222.389C222.389 33.336 222.821 31.848 223.685 30.6C224.581 29.32 225.829 28.328 227.429 27.624C229.061 26.92 230.933 26.568 233.045 26.568C235.189 26.568 237.029 26.952 238.565 27.72C240.101 28.456 241.285 29.576 242.117 31.08C242.949 32.552 243.365 34.392 243.365 36.6V51H238.229L237.797 47.496C237.285 48.712 236.293 49.704 234.821 50.472C233.381 51.24 231.733 51.624 229.877 51.624ZM231.749 47.208C233.573 47.208 235.013 46.696 236.069 45.672C237.157 44.648 237.701 43.224 237.701 41.4V40.152L232.757 40.536C230.933 40.696 229.637 41.08 228.869 41.688C228.101 42.264 227.717 43.032 227.717 43.992C227.717 45.048 228.069 45.848 228.773 46.392C229.477 46.936 230.469 47.208 231.749 47.208Z" fill="#575757"/>
</svg>
