<svg width="230" height="65" viewBox="0 0 230 65" fill="none" xmlns="http://www.w3.org/2000/svg">
<path d="M45.8 23.5V11C37.8 11 30 13.7 24.4 18.4L22.9 19.6L21.4 18.4C15.7 13.7 8 11 0 11V23.5C0 26.9 1.20001 30.1 3.20001 32.8C1.20001 35.5 0 38.7 0 42.1V54.6C8 54.6 15.8 51.9 21.4 47.2L22.9 46C19 43.7 16.6 39.6 16.6 35V30.6C16.6 26.1 19 21.9 22.9 19.6C26.8 21.9 29.2 26.1 29.2 30.6V35C29.2 39.5 26.8 43.7 22.9 46L24.4 47.2C30.1 51.9 37.8 54.6 45.8 54.6V42.1C45.8 38.7 44.6 35.5 42.6 32.8C44.6 30.1 45.8 26.9 45.8 23.5Z" fill="#575757"/>
<path d="M79.8318 15.912V51H73.6878V15.912H79.8318ZM95.3838 21.576H74.1678V15.912H95.3838V21.576ZM92.8878 36.648H74.0718V31.128H92.8878V36.648ZM105.962 51H100.154V15.288H105.962V51ZM122.713 51.624C120.377 51.624 118.297 51.096 116.473 50.04C114.681 48.952 113.273 47.48 112.249 45.624C111.225 43.736 110.713 41.576 110.713 39.144C110.713 36.68 111.209 34.504 112.201 32.616C113.193 30.728 114.585 29.256 116.377 28.2C118.169 27.112 120.217 26.568 122.521 26.568C124.921 26.568 126.985 27.08 128.713 28.104C130.441 29.096 131.769 30.488 132.697 32.28C133.657 34.072 134.137 36.216 134.137 38.712V40.488L113.785 40.536L113.881 36.792H128.329C128.329 35.16 127.801 33.848 126.745 32.856C125.721 31.864 124.329 31.368 122.569 31.368C121.193 31.368 120.025 31.656 119.065 32.232C118.137 32.808 117.433 33.672 116.953 34.824C116.473 35.976 116.233 37.384 116.233 39.048C116.233 41.608 116.777 43.544 117.865 44.856C118.985 46.168 120.633 46.824 122.809 46.824C124.409 46.824 125.721 46.52 126.745 45.912C127.801 45.304 128.489 44.44 128.809 43.32H134.233C133.721 45.912 132.441 47.944 130.393 49.416C128.377 50.888 125.817 51.624 122.713 51.624ZM141.874 51H135.202L143.362 39.384L135.202 27.288H142.018L147.25 35.352L152.29 27.288H158.866L150.802 39.336L158.626 51H151.906L146.818 43.176L141.874 51ZM159.885 39.096C159.885 36.664 160.381 34.504 161.373 32.616C162.397 30.728 163.789 29.256 165.549 28.2C167.341 27.112 169.405 26.568 171.741 26.568C174.973 26.568 177.613 27.416 179.661 29.112C181.741 30.776 182.941 33.032 183.261 35.88H177.405C177.053 34.536 176.397 33.528 175.437 32.856C174.509 32.152 173.341 31.8 171.933 31.8C170.717 31.8 169.629 32.104 168.669 32.712C167.741 33.288 167.021 34.12 166.509 35.208C165.997 36.296 165.741 37.592 165.741 39.096C165.741 40.6 165.981 41.896 166.461 42.984C166.941 44.072 167.629 44.92 168.525 45.528C169.453 46.104 170.541 46.392 171.789 46.392C173.261 46.392 174.477 46.04 175.437 45.336C176.429 44.632 177.085 43.624 177.405 42.312H183.309C183.053 44.168 182.397 45.8 181.341 47.208C180.317 48.584 178.989 49.672 177.357 50.472C175.725 51.24 173.869 51.624 171.789 51.624C169.389 51.624 167.293 51.112 165.501 50.088C163.709 49.032 162.317 47.576 161.325 45.72C160.365 43.832 159.885 41.624 159.885 39.096ZM194.724 51.624C192.228 51.624 190.244 50.952 188.772 49.608C187.332 48.232 186.612 46.44 186.612 44.232C186.612 42.056 187.364 40.328 188.868 39.048C190.404 37.736 192.58 36.968 195.396 36.744L202.5 36.168V35.64C202.5 34.552 202.292 33.688 201.876 33.048C201.492 32.376 200.932 31.896 200.196 31.608C199.46 31.288 198.596 31.128 197.604 31.128C195.876 31.128 194.548 31.48 193.62 32.184C192.692 32.856 192.228 33.816 192.228 35.064H187.236C187.236 33.336 187.668 31.848 188.532 30.6C189.428 29.32 190.676 28.328 192.276 27.624C193.908 26.92 195.78 26.568 197.892 26.568C200.036 26.568 201.876 26.952 203.412 27.72C204.948 28.456 206.132 29.576 206.964 31.08C207.796 32.552 208.212 34.392 208.212 36.6V51H203.076L202.644 47.496C202.132 48.712 201.14 49.704 199.668 50.472C198.228 51.24 196.58 51.624 194.724 51.624ZM196.596 47.208C198.42 47.208 199.86 46.696 200.916 45.672C202.004 44.648 202.548 43.224 202.548 41.4V40.152L197.604 40.536C195.78 40.696 194.484 41.08 193.716 41.688C192.948 42.264 192.564 43.032 192.564 43.992C192.564 45.048 192.916 45.848 193.62 46.392C194.324 46.936 195.316 47.208 196.596 47.208ZM228.844 27.192V32.616H226.684C224.54 32.616 222.86 33.192 221.644 34.344C220.428 35.464 219.82 37.176 219.82 39.48V51H213.964V27.336H219.484L219.964 32.232H219.388C219.708 30.664 220.46 29.384 221.644 28.392C222.828 27.4 224.364 26.904 226.252 26.904C226.668 26.904 227.084 26.92 227.5 26.952C227.916 26.984 228.364 27.064 228.844 27.192Z" fill="#575757"/>
</svg>
