<svg width="200" height="65" viewBox="0 0 200 65" fill="none" xmlns="http://www.w3.org/2000/svg">
<path d="M0.600006 18.5H0V28.2H11.8C12.9 28.2 13.3 29.7 12.3 30.2L10 31.3C6.9 32.8 3.80001 33.6 0.600006 33.6H0V43.3H11.5C12.6 43.3 13 44.8 12 45.3L9.60001 46.4C6.70001 47.8 3.60001 48.5 0.600006 48.5H0V58.2H11.5L12.8 56.6C18.4 50.1 24.9 46.7 31.7 46.7H32.2V37H20.7C19.6 37 19.2 35.5 20.2 35L22.6 33.9C25.5 32.5 28.6 31.8 31.6 31.8H32.1V22.1H20.4C19.3 22.1 18.9 20.6 19.9 20.1L22.2 19C25.3 17.5 28.4 16.7 31.6 16.7H32.1V7H20.6L19.3 8.60001C13.9 15.1 7.30001 18.5 0.600006 18.5Z" fill="#575757"/>
<path d="M66.2322 51H60.0882V15.912H73.4802C77.4482 15.912 80.5362 16.872 82.7442 18.792C84.9842 20.712 86.1042 23.4 86.1042 26.856C86.1042 29.192 85.5602 31.192 84.4722 32.856C83.4162 34.488 81.8482 35.736 79.7682 36.6L86.4402 51H79.7202L73.7682 37.896H66.2322V51ZM66.2322 21.384V32.472H73.4802C75.4322 32.472 76.9522 31.976 78.0402 30.984C79.1282 29.992 79.6722 28.616 79.6722 26.856C79.6722 25.096 79.1282 23.752 78.0402 22.824C76.9522 21.864 75.4322 21.384 73.4802 21.384H66.2322ZM100.301 51.624C97.9649 51.624 95.8849 51.096 94.0609 50.04C92.2689 48.952 90.8609 47.48 89.8369 45.624C88.8129 43.736 88.3009 41.576 88.3009 39.144C88.3009 36.68 88.7969 34.504 89.7889 32.616C90.7809 30.728 92.1729 29.256 93.9649 28.2C95.7569 27.112 97.8049 26.568 100.109 26.568C102.509 26.568 104.573 27.08 106.301 28.104C108.029 29.096 109.357 30.488 110.285 32.28C111.245 34.072 111.725 36.216 111.725 38.712V40.488L91.3729 40.536L91.4689 36.792H105.917C105.917 35.16 105.389 33.848 104.333 32.856C103.309 31.864 101.917 31.368 100.157 31.368C98.7809 31.368 97.6129 31.656 96.6529 32.232C95.7249 32.808 95.0209 33.672 94.5409 34.824C94.0609 35.976 93.8209 37.384 93.8209 39.048C93.8209 41.608 94.3649 43.544 95.4529 44.856C96.5729 46.168 98.2209 46.824 100.397 46.824C101.997 46.824 103.309 46.52 104.333 45.912C105.389 45.304 106.077 44.44 106.397 43.32H111.821C111.309 45.912 110.029 47.944 107.981 49.416C105.965 50.888 103.405 51.624 100.301 51.624ZM122.268 51H116.412V27.288H121.836L122.316 30.36C123.052 29.176 124.092 28.248 125.436 27.576C126.812 26.904 128.3 26.568 129.9 26.568C132.876 26.568 135.116 27.448 136.62 29.208C138.156 30.968 138.924 33.368 138.924 36.408V51H133.068V37.8C133.068 35.816 132.62 34.344 131.724 33.384C130.828 32.392 129.612 31.896 128.076 31.896C126.252 31.896 124.828 32.472 123.804 33.624C122.78 34.776 122.268 36.312 122.268 38.232V51ZM142.325 27.288H157.301V32.184H142.325V27.288ZM152.741 51H146.885V19.896H152.741V51ZM160.99 51V27.288H166.846V51H160.99ZM163.87 22.536C162.878 22.536 162.03 22.2 161.326 21.528C160.654 20.824 160.318 19.976 160.318 18.984C160.318 17.992 160.654 17.16 161.326 16.488C162.03 15.816 162.878 15.48 163.87 15.48C164.862 15.48 165.694 15.816 166.366 16.488C167.07 17.16 167.422 17.992 167.422 18.984C167.422 19.976 167.07 20.824 166.366 21.528C165.694 22.2 164.862 22.536 163.87 22.536ZM171.504 39.096C171.504 36.632 172.048 34.472 173.136 32.616C174.224 30.728 175.728 29.256 177.648 28.2C179.568 27.144 181.744 26.616 184.176 26.616C186.64 26.616 188.816 27.144 190.704 28.2C192.624 29.256 194.128 30.728 195.216 32.616C196.304 34.472 196.848 36.632 196.848 39.096C196.848 41.56 196.304 43.736 195.216 45.624C194.128 47.48 192.624 48.936 190.704 49.992C188.816 51.048 186.64 51.576 184.176 51.576C181.744 51.576 179.568 51.048 177.648 49.992C175.728 48.936 174.224 47.48 173.136 45.624C172.048 43.736 171.504 41.56 171.504 39.096ZM177.36 39.096C177.36 40.536 177.648 41.8 178.224 42.888C178.832 43.976 179.632 44.824 180.624 45.432C181.648 46.04 182.832 46.344 184.176 46.344C185.52 46.344 186.704 46.04 187.728 45.432C188.752 44.824 189.552 43.976 190.128 42.888C190.704 41.8 190.992 40.536 190.992 39.096C190.992 37.624 190.704 36.36 190.128 35.304C189.552 34.216 188.752 33.368 187.728 32.76C186.704 32.152 185.52 31.848 184.176 31.848C182.832 31.848 181.648 32.152 180.624 32.76C179.632 33.368 178.832 34.216 178.224 35.304C177.648 36.36 177.36 37.624 177.36 39.096Z" fill="#575757"/>
</svg>
