<svg width="218" height="65" viewBox="0 0 218 65" fill="none" xmlns="http://www.w3.org/2000/svg">
<path d="M17.7 26.9C24.6 23.6 30 18 33.1 11C31.1 8.9 28.5 7.4 25.7 6.5L24.2 6C24.1 6.2 24 6.50001 24 6.70001C21.6 13.5 16.7 19 10.1 22.1C5.50001 24.3 2.1 28.3 0.5 33.1L0 34.6C0.2 34.7 0.500005 34.8 0.700005 34.8C2.6 35.5 4.5 36.4 6.3 37.5C8.8 33 12.8 29.2 17.7 26.9Z" fill="#575757"/>
<path d="M46.6998 27.3C42.9998 32.9 37.8998 37.4001 31.5998 40.4001C26.4998 42.8001 22.5998 47.3001 20.7998 52.7001L20.2998 54.4001C22.1998 56.1001 24.4998 57.4001 26.9998 58.2001L28.4998 58.7001C28.5998 58.5001 28.6998 58.2001 28.6998 58.0001C31.0998 51.2001 35.9998 45.7001 42.5998 42.6001C47.1998 40.4001 50.6998 36.4001 52.1998 31.6001L52.6998 30.1001C50.5998 29.5001 48.5998 28.5 46.6998 27.3Z" fill="#575757"/>
<path d="M16.3002 49.2001C18.8002 43.2001 23.4002 38.3001 29.3002 35.5001C34.7002 32.9001 39.2002 28.9001 42.3002 24.0001C40.0002 21.8001 38.1002 19.3 36.7002 16.3C33.0002 23.1 27.2002 28.6001 20.1002 32.0001C16.0002 33.9001 12.7002 37.2001 10.7002 41.2001C12.9002 43.3001 14.7002 45.9 16.1002 48.8C16.1002 48.8 16.2002 49.0001 16.3002 49.2001Z" fill="#575757"/>
<path d="M86.5402 51H80.5882V15.912H86.5402L97.8682 43.848L109.196 15.912H115.244V51H109.292V40.2C109.292 38.44 109.292 36.968 109.292 35.784C109.292 34.568 109.308 33.544 109.34 32.712C109.372 31.88 109.404 31.144 109.436 30.504C109.468 29.864 109.532 29.224 109.628 28.584L100.7 51H95.0362L86.1562 28.632C86.3162 29.688 86.4122 31.032 86.4442 32.664C86.5082 34.296 86.5402 36.216 86.5402 38.424V51ZM120.754 39.096C120.754 36.632 121.298 34.472 122.386 32.616C123.474 30.728 124.978 29.256 126.898 28.2C128.818 27.144 130.994 26.616 133.426 26.616C135.89 26.616 138.066 27.144 139.954 28.2C141.874 29.256 143.378 30.728 144.466 32.616C145.554 34.472 146.098 36.632 146.098 39.096C146.098 41.56 145.554 43.736 144.466 45.624C143.378 47.48 141.874 48.936 139.954 49.992C138.066 51.048 135.89 51.576 133.426 51.576C130.994 51.576 128.818 51.048 126.898 49.992C124.978 48.936 123.474 47.48 122.386 45.624C121.298 43.736 120.754 41.56 120.754 39.096ZM126.61 39.096C126.61 40.536 126.898 41.8 127.474 42.888C128.082 43.976 128.882 44.824 129.874 45.432C130.898 46.04 132.082 46.344 133.426 46.344C134.77 46.344 135.954 46.04 136.978 45.432C138.002 44.824 138.802 43.976 139.378 42.888C139.954 41.8 140.242 40.536 140.242 39.096C140.242 37.624 139.954 36.36 139.378 35.304C138.802 34.216 138.002 33.368 136.978 32.76C135.954 32.152 134.77 31.848 133.426 31.848C132.082 31.848 130.898 32.152 129.874 32.76C128.882 33.368 128.082 34.216 127.474 35.304C126.898 36.36 126.61 37.624 126.61 39.096ZM148.153 27.288H163.129V32.184H148.153V27.288ZM158.569 51H152.713V19.896H158.569V51ZM166.818 51V27.288H172.674V51H166.818ZM169.698 22.536C168.706 22.536 167.858 22.2 167.154 21.528C166.482 20.824 166.146 19.976 166.146 18.984C166.146 17.992 166.482 17.16 167.154 16.488C167.858 15.816 168.706 15.48 169.698 15.48C170.69 15.48 171.522 15.816 172.194 16.488C172.898 17.16 173.25 17.992 173.25 18.984C173.25 19.976 172.898 20.824 172.194 21.528C171.522 22.2 170.69 22.536 169.698 22.536ZM176.372 27.288H191.252V32.184H176.372V27.288ZM191.3 15.528V20.52C190.98 20.52 190.644 20.52 190.292 20.52C189.972 20.52 189.636 20.52 189.284 20.52C187.812 20.52 186.82 20.872 186.308 21.576C185.828 22.28 185.588 23.224 185.588 24.408V51H179.78V24.408C179.78 22.232 180.132 20.488 180.836 19.176C181.54 17.832 182.532 16.856 183.812 16.248C185.092 15.608 186.58 15.288 188.276 15.288C188.756 15.288 189.252 15.304 189.764 15.336C190.308 15.368 190.82 15.432 191.3 15.528ZM198.494 27.288L206.222 49.176L203.054 55.176L192.302 27.288H198.494ZM192.926 61.992V57.144H196.43C197.198 57.144 197.87 57.048 198.446 56.856C199.022 56.696 199.534 56.376 199.982 55.896C200.462 55.416 200.862 54.712 201.182 53.784L211.022 27.288H217.07L205.454 56.28C204.59 58.456 203.502 60.04 202.19 61.032C200.878 62.024 199.246 62.52 197.294 62.52C196.462 62.52 195.678 62.472 194.942 62.376C194.238 62.312 193.566 62.184 192.926 61.992Z" fill="#575757"/>
</svg>
