<svg width="197" height="65" viewBox="0 0 197 65" fill="none" xmlns="http://www.w3.org/2000/svg">
<path d="M25.8001 44.1C22.3001 42.8 18.7001 42.6001 15.4001 43.5001C13.1001 44.1001 10.9001 45.3 8.90012 46.8L7.50009 48.0001L7.1001 48.4001L8.00009 49.2C8.10009 49.2 8.1001 49.3001 8.2001 49.4001C8.4001 49.6001 8.60012 49.7001 8.90012 49.9001L9.50009 50.3L10.1001 49.8C10.2001 49.7 10.4001 49.5001 10.6001 49.4001C12.4001 47.9001 14.4001 46.9001 16.5001 46.4001C19.2001 45.7001 22.1001 45.8001 25.0001 46.9001C27.4001 47.8001 32.3001 48.9001 38.2001 46.4001L38.4001 46.3L38.7001 46.0001C38.7001 45.9001 38.8001 45.9 38.9001 45.8C39.4001 45.2 39.9001 44.6001 40.3001 43.9001L42.3001 40.8L39.1001 42.6C34.4001 45.2 30.1001 45.7 25.8001 44.1Z" fill="#575757"/>
<path d="M12.1 33.3001C14.8 32.6001 17.7 32.7001 20.6 33.8001C23.8 35.0001 32 36.7001 41.2 28.4001L42.7 26.9001L42.8 26.8001L43.2 26.4001L43 25.9001C42.9 25.5001 42.7 25.0001 42.5 24.5001L42 23.1001L41 24.1001C40.9 24.3001 40.7 24.4001 40.5 24.6001C36.1 29.1001 29.3 33.7001 21.5 30.9001C18 29.6001 14.4 29.4001 11.1 30.3001C7.90001 31.2001 5.1 32.9001 2.5 35.3001V35.2001L1 36.8001C1 36.9001 0.900018 36.9001 0.800018 37.0001L0.5 37.3001L0.600006 37.7001C0.700006 38.2001 0.9 38.7001 1 39.2001L1.60001 40.8001L2.60001 39.5001C2.70001 39.3001 2.9 39.2001 3 39.0001C5.1 37.1001 8.00001 34.4001 12.1 33.3001Z" fill="#575757"/>
<path d="M2.40002 31.5001C4.70002 29.1001 7.30001 27.6001 10.1 26.8001C12.8 26.1001 15.7 26.2001 18.6 27.3001C27.6 30.6001 35.4 25.2001 38.8 22.3001L40.1 21.0001L40.6 20.6001L40.2 20.0001C39.9 19.7001 39.7 19.3001 39.4 18.9001L38.8 18.1001L38.1 18.8001C38 18.9001 37.8 19.1001 37.7 19.2001C33.5 23.2001 27 27.3001 19.6 24.5001C16.1 23.2001 12.5 23.0001 9.20001 23.9001C7.10001 24.5001 5.10001 25.5001 3.10001 26.8001L1 28.5001C0.8 28.7001 0.7 28.8001 0.5 29.0001L0.300018 29.2001V29.5001C0.200018 30.2001 0.200006 30.9001 0.100006 31.5001L0 34.0001L1.70001 32.2001C1.90001 32.0001 2.10002 31.7001 2.40002 31.5001Z" fill="#575757"/>
<path d="M28.6999 50.9L28.4999 51.5L28.6999 50.9C28.3999 50.8 28.1999 50.7 27.8999 50.6C24.3999 49.3 20.7999 49.1 17.4999 50C16.7999 50.2 16.0999 50.4 15.3999 50.7L12.9999 51.8L12.3999 52.1L14.3999 52.8C14.9999 53 15.5999 53.2 16.1999 53.4L16.4999 53.5L16.7999 53.4C17.0999 53.3 17.3999 53.1 17.6999 53.1C17.8999 53.1 18.0999 53 18.2999 52.9C20.6999 52.3 23.2999 52.3 26.0999 53.2C26.3999 53.3 26.5999 53.4 26.8999 53.5L27.3999 53.7L27.6999 53.6C28.3999 53.4 29.1999 53.2 29.7999 52.9L32.5999 51.9L29.6999 51.2C29.3999 51.1 28.9999 51 28.6999 50.9Z" fill="#575757"/>
<path d="M43.9998 30.2L42.4998 31.7C42.2998 31.9 42.0998 32.1 41.8998 32.3C37.7998 36.2 31.1998 40.3999 23.7998 37.5999C20.2998 36.2999 16.6998 36.1 13.3998 37C10.2998 37.9 7.49979 39.5 4.99979 41.9L3.6998 43.3L3.2998 43.8L3.6998 44.4C3.9998 44.8 4.19981 45.1 4.39981 45.5L4.99979 46.4L5.6998 45.5C5.7998 45.4 5.99979 45.1999 6.09979 45.0999C8.49979 42.4999 11.0998 40.8999 14.0998 40.0999C16.7998 39.3999 19.6998 39.4999 22.5998 40.5999C25.0998 41.4999 27.6998 41.8 30.2998 41.5C34.8998 41 39.4998 38.4 42.8998 35.5C43.0998 35.3 43.2998 35.2 43.4998 35L43.7998 34.7V34.4C43.7998 33.8 43.8998 33.1 43.8998 32.5L43.9998 30.2Z" fill="#575757"/>
<path d="M6.00018 20.9999L5.7002 20.3999L6.00018 20.9999C6.60018 20.6999 7.30021 20.4999 7.90021 20.2999C10.6002 19.5999 13.5002 19.6999 16.4002 20.7999C18.3002 21.4999 20.2002 21.7999 22.3002 21.7999C26.5002 21.7999 30.7002 20.2999 34.6002 17.3999L36.1002 16.1999L36.6002 15.7999L35.7002 15.0999C35.4002 14.7999 35.0002 14.4999 34.6002 14.2999L34.0002 13.8999L33.5002 14.2999C33.3002 14.3999 33.2002 14.5999 33.0002 14.6999C27.7002 18.6999 22.4002 19.7999 17.4002 17.8999C13.8002 16.5999 10.2002 16.2999 6.60019 17.3999C6.30019 17.4999 6.00019 17.5999 5.60019 17.6999L5.40021 17.7999L5.10019 18.0999C5.10019 18.1999 5.00021 18.1999 4.90021 18.2999C4.50021 18.8999 4.00019 19.3999 3.60019 19.9999L1.7002 22.8999L4.8002 21.2999C5.3002 21.2999 5.70018 21.0999 6.00018 20.9999Z" fill="#575757"/>
<path d="M14.2 14.2L14.5 14.3C15.8 14.8 17.8 15.3 20.3 15.3C22.9 15.3 25.4 14.7 27.9 13.7L31 12.2L28.9 11.5C28.3 11.3 27.7 11.1 27 11H26.7L26.4 11.1C26.1 11.2 25.8 11.4 25.5 11.5C22.5 12.6 19.5 12.8 16.6 12C16.3 11.9 16 11.8 15.7 11.7L15.4 11.6L15.1 11.7C14.5 11.9 13.9 12.1 13.3 12.4L11 13.4L13.4 14.1C13.6 14 13.9 14.1 14.2 14.2Z" fill="#575757"/>
<path d="M84.512 51H71.888V15.912H84.176C87.632 15.912 90.672 16.664 93.296 18.168C95.92 19.64 97.968 21.704 99.44 24.36C100.944 26.984 101.696 30.04 101.696 33.528C101.696 36.952 100.96 39.992 99.488 42.648C98.048 45.272 96.032 47.32 93.44 48.792C90.88 50.264 87.904 51 84.512 51ZM78.032 18.744V48.216L75.104 45.336H83.936C86.272 45.336 88.288 44.856 89.984 43.896C91.68 42.936 92.976 41.576 93.872 39.816C94.768 38.056 95.216 35.96 95.216 33.528C95.216 31.032 94.752 28.904 93.824 27.144C92.896 25.352 91.568 23.976 89.84 23.016C88.112 22.056 86.032 21.576 83.6 21.576H75.104L78.032 18.744ZM121.435 27.192V32.616H119.275C117.131 32.616 115.451 33.192 114.235 34.344C113.019 35.464 112.411 37.176 112.411 39.48V51H106.555V27.336H112.075L112.555 32.232H111.979C112.299 30.664 113.051 29.384 114.235 28.392C115.419 27.4 116.955 26.904 118.843 26.904C119.259 26.904 119.675 26.92 120.091 26.952C120.507 26.984 120.955 27.064 121.435 27.192ZM125.399 51V27.288H131.255V51H125.399ZM128.279 22.536C127.287 22.536 126.439 22.2 125.735 21.528C125.063 20.824 124.727 19.976 124.727 18.984C124.727 17.992 125.063 17.16 125.735 16.488C126.439 15.816 127.287 15.48 128.279 15.48C129.271 15.48 130.103 15.816 130.775 16.488C131.479 17.16 131.831 17.992 131.831 18.984C131.831 19.976 131.479 20.824 130.775 21.528C130.103 22.2 129.271 22.536 128.279 22.536ZM144.025 51L134.617 27.288H140.857L144.985 38.184C145.497 39.592 145.929 40.888 146.281 42.072C146.665 43.224 146.937 44.12 147.097 44.76C147.257 44.024 147.529 43.08 147.913 41.928C148.329 40.744 148.793 39.496 149.305 38.184L153.625 27.288H159.673L149.785 51H144.025ZM163.04 51V27.288H168.896V51H163.04ZM165.92 22.536C164.928 22.536 164.08 22.2 163.376 21.528C162.704 20.824 162.368 19.976 162.368 18.984C162.368 17.992 162.704 17.16 163.376 16.488C164.08 15.816 164.928 15.48 165.92 15.48C166.912 15.48 167.744 15.816 168.416 16.488C169.12 17.16 169.472 17.992 169.472 18.984C169.472 19.976 169.12 20.824 168.416 21.528C167.744 22.2 166.912 22.536 165.92 22.536ZM179.074 51H172.402L180.562 39.384L172.402 27.288H179.218L184.45 35.352L189.49 27.288H196.066L188.002 39.336L195.826 51H189.106L184.018 43.176L179.074 51Z" fill="#575757"/>
</svg>
