<svg width="210" height="65" viewBox="0 0 210 65" fill="none" xmlns="http://www.w3.org/2000/svg">
<path d="M24.7 8C11.1 8 0 19.1 0 32.7C0 46.3 11.1 57.4 24.7 57.4C38.3 57.4 49.4 46.3 49.4 32.7C49.4 19.1 38.3 8 24.7 8ZM6.9 32.7C6.9 27.6 9.1 22.9 12.6 19.7C14 18.4 16.4 18.8 17.4 20.5L23.6 31.2C24.2 32.2 24.2 33.4 23.6 34.4L17.4 45.1C16.4 46.9 14 47.2 12.5 45.8C9.1 42.4 6.9 37.8 6.9 32.7ZM32 44.9L25.8 34.2C25.2 33.2 25.2 32 25.8 31L32 20.3C33 18.6 35.3 18.2 36.8 19.5C40.3 22.7 42.5 27.4 42.5 32.5C42.5 37.6 40.3 42.3 36.8 45.5C35.3 47.1 33 46.7 32 44.9Z" fill="#575757"/>
<path d="M92.1199 51.576C88.6959 51.576 85.7199 50.84 83.1919 49.368C80.6959 47.864 78.7439 45.768 77.3359 43.08C75.9599 40.36 75.2719 37.16 75.2719 33.48C75.2719 29.832 75.9759 26.648 77.3839 23.928C78.8239 21.208 80.8399 19.096 83.4319 17.592C86.0239 16.088 89.0159 15.336 92.4079 15.336C95.1919 15.336 97.6879 15.848 99.8959 16.872C102.104 17.896 103.928 19.336 105.368 21.192C106.808 23.016 107.72 25.192 108.104 27.72H101.624C101.016 25.672 99.8799 24.088 98.2159 22.968C96.5839 21.816 94.5839 21.24 92.2159 21.24C90.1039 21.24 88.2479 21.736 86.6479 22.728C85.0799 23.72 83.8639 25.128 82.9999 26.952C82.1359 28.776 81.7039 30.952 81.7039 33.48C81.7039 35.912 82.1359 38.056 82.9999 39.912C83.8639 41.736 85.0799 43.16 86.6479 44.184C88.2479 45.176 90.1039 45.672 92.2159 45.672C94.6159 45.672 96.6639 45.096 98.3599 43.944C100.088 42.792 101.24 41.24 101.816 39.288H108.2C107.752 41.72 106.776 43.864 105.272 45.72C103.8 47.576 101.928 49.016 99.6559 50.04C97.4159 51.064 94.9039 51.576 92.1199 51.576ZM119.433 51.624C116.937 51.624 114.953 50.952 113.481 49.608C112.041 48.232 111.321 46.44 111.321 44.232C111.321 42.056 112.073 40.328 113.577 39.048C115.113 37.736 117.289 36.968 120.105 36.744L127.209 36.168V35.64C127.209 34.552 127.001 33.688 126.585 33.048C126.201 32.376 125.641 31.896 124.905 31.608C124.169 31.288 123.305 31.128 122.313 31.128C120.585 31.128 119.257 31.48 118.329 32.184C117.401 32.856 116.937 33.816 116.937 35.064H111.945C111.945 33.336 112.377 31.848 113.241 30.6C114.137 29.32 115.385 28.328 116.985 27.624C118.617 26.92 120.489 26.568 122.601 26.568C124.745 26.568 126.585 26.952 128.121 27.72C129.657 28.456 130.841 29.576 131.673 31.08C132.505 32.552 132.921 34.392 132.921 36.6V51H127.785L127.353 47.496C126.841 48.712 125.849 49.704 124.377 50.472C122.937 51.24 121.289 51.624 119.433 51.624ZM121.305 47.208C123.129 47.208 124.569 46.696 125.625 45.672C126.713 44.648 127.257 43.224 127.257 41.4V40.152L122.313 40.536C120.489 40.696 119.193 41.08 118.425 41.688C117.657 42.264 117.273 43.032 117.273 43.992C117.273 45.048 117.625 45.848 118.329 46.392C119.033 46.936 120.025 47.208 121.305 47.208ZM153.554 27.192V32.616H151.394C149.25 32.616 147.57 33.192 146.354 34.344C145.138 35.464 144.53 37.176 144.53 39.48V51H138.674V27.336H144.194L144.674 32.232H144.098C144.418 30.664 145.17 29.384 146.354 28.392C147.538 27.4 149.074 26.904 150.962 26.904C151.378 26.904 151.794 26.92 152.21 26.952C152.626 26.984 153.074 27.064 153.554 27.192ZM163.422 51H157.614V15.288H163.422V51ZM180.173 51.624C177.837 51.624 175.757 51.096 173.933 50.04C172.141 48.952 170.733 47.48 169.709 45.624C168.685 43.736 168.173 41.576 168.173 39.144C168.173 36.68 168.669 34.504 169.661 32.616C170.653 30.728 172.045 29.256 173.837 28.2C175.629 27.112 177.677 26.568 179.981 26.568C182.381 26.568 184.445 27.08 186.173 28.104C187.901 29.096 189.229 30.488 190.157 32.28C191.117 34.072 191.597 36.216 191.597 38.712V40.488L171.245 40.536L171.341 36.792H185.789C185.789 35.16 185.261 33.848 184.205 32.856C183.181 31.864 181.789 31.368 180.029 31.368C178.653 31.368 177.485 31.656 176.525 32.232C175.597 32.808 174.893 33.672 174.413 34.824C173.933 35.976 173.693 37.384 173.693 39.048C173.693 41.608 174.237 43.544 175.325 44.856C176.445 46.168 178.093 46.824 180.269 46.824C181.869 46.824 183.181 46.52 184.205 45.912C185.261 45.304 185.949 44.44 186.269 43.32H191.693C191.181 45.912 189.901 47.944 187.853 49.416C185.837 50.888 183.277 51.624 180.173 51.624ZM193.697 27.288H208.673V32.184H193.697V27.288ZM204.113 51H198.257V19.896H204.113V51Z" fill="#575757"/>
</svg>
