<svg width="221" height="65" viewBox="0 0 221 65" fill="none" xmlns="http://www.w3.org/2000/svg">
<path d="M35.4002 37.5001L42.4002 30.5001C42.4002 25.7001 41.2002 21.1001 39.0002 17.1001L22.7002 32.2001V57.3001H25.8002C36.7002 57.3001 45.6002 48.5001 45.6002 37.5001H35.4002Z" fill="#575757"/>
<path d="M10.2 26.8L3.2 33.8C3.2 38.6 4.4 43.2 6.6 47.2L22.9 32.1V7H19.8C8.9 7 0 15.8 0 26.8H10.2V26.8Z" fill="#575757"/>
<path d="M83.3281 51L70.0801 15.912H76.6081L84.2881 36.12C84.6721 37.144 85.0401 38.216 85.3921 39.336C85.7441 40.456 86.1121 41.72 86.4961 43.128C86.9121 41.592 87.3121 40.264 87.6961 39.144C88.0801 38.024 88.4321 37.016 88.7521 36.12L96.3361 15.912H102.72L89.6641 51H83.3281ZM112.81 51.624C110.474 51.624 108.394 51.096 106.57 50.04C104.778 48.952 103.37 47.48 102.346 45.624C101.322 43.736 100.81 41.576 100.81 39.144C100.81 36.68 101.306 34.504 102.298 32.616C103.29 30.728 104.682 29.256 106.474 28.2C108.266 27.112 110.314 26.568 112.618 26.568C115.018 26.568 117.082 27.08 118.81 28.104C120.538 29.096 121.866 30.488 122.794 32.28C123.754 34.072 124.234 36.216 124.234 38.712V40.488L103.882 40.536L103.978 36.792H118.426C118.426 35.16 117.898 33.848 116.842 32.856C115.818 31.864 114.426 31.368 112.666 31.368C111.29 31.368 110.122 31.656 109.162 32.232C108.234 32.808 107.53 33.672 107.05 34.824C106.57 35.976 106.33 37.384 106.33 39.048C106.33 41.608 106.874 43.544 107.962 44.856C109.082 46.168 110.73 46.824 112.906 46.824C114.506 46.824 115.818 46.52 116.842 45.912C117.898 45.304 118.586 44.44 118.906 43.32H124.33C123.818 45.912 122.538 47.944 120.49 49.416C118.474 50.888 115.914 51.624 112.81 51.624ZM134.825 51H129.017V15.288H134.825V51ZM139.576 39.096C139.576 36.632 140.12 34.472 141.208 32.616C142.296 30.728 143.8 29.256 145.72 28.2C147.64 27.144 149.816 26.616 152.248 26.616C154.712 26.616 156.888 27.144 158.776 28.2C160.696 29.256 162.2 30.728 163.288 32.616C164.376 34.472 164.92 36.632 164.92 39.096C164.92 41.56 164.376 43.736 163.288 45.624C162.2 47.48 160.696 48.936 158.776 49.992C156.888 51.048 154.712 51.576 152.248 51.576C149.816 51.576 147.64 51.048 145.72 49.992C143.8 48.936 142.296 47.48 141.208 45.624C140.12 43.736 139.576 41.56 139.576 39.096ZM145.432 39.096C145.432 40.536 145.72 41.8 146.296 42.888C146.904 43.976 147.704 44.824 148.696 45.432C149.72 46.04 150.904 46.344 152.248 46.344C153.592 46.344 154.776 46.04 155.8 45.432C156.824 44.824 157.624 43.976 158.2 42.888C158.776 41.8 159.064 40.536 159.064 39.096C159.064 37.624 158.776 36.36 158.2 35.304C157.624 34.216 156.824 33.368 155.8 32.76C154.776 32.152 153.592 31.848 152.248 31.848C150.904 31.848 149.72 32.152 148.696 32.76C147.704 33.368 146.904 34.216 146.296 35.304C145.72 36.36 145.432 37.624 145.432 39.096ZM168.17 39.096C168.17 36.664 168.666 34.504 169.658 32.616C170.682 30.728 172.074 29.256 173.834 28.2C175.626 27.112 177.69 26.568 180.026 26.568C183.258 26.568 185.898 27.416 187.946 29.112C190.026 30.776 191.226 33.032 191.546 35.88H185.69C185.338 34.536 184.682 33.528 183.722 32.856C182.794 32.152 181.626 31.8 180.218 31.8C179.002 31.8 177.914 32.104 176.954 32.712C176.026 33.288 175.306 34.12 174.794 35.208C174.282 36.296 174.026 37.592 174.026 39.096C174.026 40.6 174.266 41.896 174.746 42.984C175.226 44.072 175.914 44.92 176.81 45.528C177.738 46.104 178.826 46.392 180.074 46.392C181.546 46.392 182.762 46.04 183.722 45.336C184.714 44.632 185.37 43.624 185.69 42.312H191.594C191.338 44.168 190.682 45.8 189.626 47.208C188.602 48.584 187.274 49.672 185.642 50.472C184.01 51.24 182.154 51.624 180.074 51.624C177.674 51.624 175.578 51.112 173.786 50.088C171.994 49.032 170.602 47.576 169.61 45.72C168.65 43.832 168.17 41.624 168.17 39.096ZM206.56 51.624C204.224 51.624 202.144 51.096 200.32 50.04C198.528 48.952 197.12 47.48 196.096 45.624C195.072 43.736 194.56 41.576 194.56 39.144C194.56 36.68 195.056 34.504 196.048 32.616C197.04 30.728 198.432 29.256 200.224 28.2C202.016 27.112 204.064 26.568 206.368 26.568C208.768 26.568 210.832 27.08 212.56 28.104C214.288 29.096 215.616 30.488 216.544 32.28C217.504 34.072 217.984 36.216 217.984 38.712V40.488L197.632 40.536L197.728 36.792H212.176C212.176 35.16 211.648 33.848 210.592 32.856C209.568 31.864 208.176 31.368 206.416 31.368C205.04 31.368 203.872 31.656 202.912 32.232C201.984 32.808 201.28 33.672 200.8 34.824C200.32 35.976 200.08 37.384 200.08 39.048C200.08 41.608 200.624 43.544 201.712 44.856C202.832 46.168 204.48 46.824 206.656 46.824C208.256 46.824 209.568 46.52 210.592 45.912C211.648 45.304 212.336 44.44 212.656 43.32H218.08C217.568 45.912 216.288 47.944 214.24 49.416C212.224 50.888 209.664 51.624 206.56 51.624Z" fill="#575757"/>
</svg>
