<svg width="257" height="65" viewBox="0 0 257 65" fill="none" xmlns="http://www.w3.org/2000/svg">
<path d="M22.6 10.7V32.2L17.7 29.4C9 24.4 3.59999 15.1 3.59999 5H0V29.6C0 37.6 4.59999 45 11.9 48.5L22.7 53.7V32.2L27.6 35C36.3 40 41.7 49.3 41.7 59.4H45.3V34.8C45.3 26.8 40.7 19.4 33.4 15.9L22.6 10.7Z" fill="#575757"/>
<path d="M83.0278 51L69.7798 15.912H76.3078L83.9878 36.12C84.3718 37.144 84.7398 38.216 85.0918 39.336C85.4438 40.456 85.8118 41.72 86.1958 43.128C86.6118 41.592 87.0118 40.264 87.3958 39.144C87.7798 38.024 88.1318 37.016 88.4518 36.12L96.0358 15.912H102.42L89.3638 51H83.0278ZM118.235 27.192V32.616H116.075C113.931 32.616 112.251 33.192 111.035 34.344C109.819 35.464 109.211 37.176 109.211 39.48V51H103.355V27.336H108.875L109.355 32.232H108.779C109.099 30.664 109.851 29.384 111.035 28.392C112.219 27.4 113.755 26.904 115.643 26.904C116.059 26.904 116.475 26.92 116.891 26.952C117.307 26.984 117.755 27.064 118.235 27.192ZM120.01 39.096C120.01 36.632 120.554 34.472 121.642 32.616C122.73 30.728 124.234 29.256 126.154 28.2C128.074 27.144 130.25 26.616 132.682 26.616C135.146 26.616 137.322 27.144 139.21 28.2C141.13 29.256 142.634 30.728 143.722 32.616C144.81 34.472 145.354 36.632 145.354 39.096C145.354 41.56 144.81 43.736 143.722 45.624C142.634 47.48 141.13 48.936 139.21 49.992C137.322 51.048 135.146 51.576 132.682 51.576C130.25 51.576 128.074 51.048 126.154 49.992C124.234 48.936 122.73 47.48 121.642 45.624C120.554 43.736 120.01 41.56 120.01 39.096ZM125.866 39.096C125.866 40.536 126.154 41.8 126.73 42.888C127.338 43.976 128.138 44.824 129.13 45.432C130.154 46.04 131.338 46.344 132.682 46.344C134.026 46.344 135.21 46.04 136.234 45.432C137.258 44.824 138.058 43.976 138.634 42.888C139.21 41.8 139.498 40.536 139.498 39.096C139.498 37.624 139.21 36.36 138.634 35.304C138.058 34.216 137.258 33.368 136.234 32.76C135.21 32.152 134.026 31.848 132.682 31.848C131.338 31.848 130.154 32.152 129.13 32.76C128.138 33.368 127.338 34.216 126.73 35.304C126.154 36.36 125.866 37.624 125.866 39.096ZM148.604 39.096C148.604 36.632 149.148 34.472 150.236 32.616C151.324 30.728 152.828 29.256 154.748 28.2C156.668 27.144 158.844 26.616 161.276 26.616C163.74 26.616 165.916 27.144 167.804 28.2C169.724 29.256 171.228 30.728 172.316 32.616C173.404 34.472 173.948 36.632 173.948 39.096C173.948 41.56 173.404 43.736 172.316 45.624C171.228 47.48 169.724 48.936 167.804 49.992C165.916 51.048 163.74 51.576 161.276 51.576C158.844 51.576 156.668 51.048 154.748 49.992C152.828 48.936 151.324 47.48 150.236 45.624C149.148 43.736 148.604 41.56 148.604 39.096ZM154.46 39.096C154.46 40.536 154.748 41.8 155.324 42.888C155.932 43.976 156.732 44.824 157.724 45.432C158.748 46.04 159.932 46.344 161.276 46.344C162.62 46.344 163.804 46.04 164.828 45.432C165.852 44.824 166.652 43.976 167.228 42.888C167.804 41.8 168.092 40.536 168.092 39.096C168.092 37.624 167.804 36.36 167.228 35.304C166.652 34.216 165.852 33.368 164.828 32.76C163.804 32.152 162.62 31.848 161.276 31.848C159.932 31.848 158.748 32.152 157.724 32.76C156.732 33.368 155.932 34.216 155.324 35.304C154.748 36.36 154.46 37.624 154.46 39.096ZM184.445 51H178.589V27.288H183.965L184.685 31.512L184.013 30.936C184.493 29.784 185.373 28.776 186.653 27.912C187.933 27.016 189.533 26.568 191.453 26.568C193.533 26.568 195.229 27.112 196.541 28.2C197.885 29.288 198.813 30.728 199.325 32.52H198.365C198.717 30.728 199.613 29.288 201.053 28.2C202.525 27.112 204.301 26.568 206.381 26.568C209.261 26.568 211.469 27.384 213.005 29.016C214.541 30.616 215.309 32.776 215.309 35.496V51H209.501V37.032C209.501 35.336 209.069 34.056 208.205 33.192C207.373 32.296 206.253 31.848 204.845 31.848C203.949 31.848 203.117 32.056 202.349 32.472C201.613 32.888 201.021 33.512 200.573 34.344C200.125 35.176 199.901 36.248 199.901 37.56V51H194.045V36.984C194.045 35.32 193.629 34.056 192.797 33.192C191.965 32.328 190.861 31.896 189.485 31.896C188.557 31.896 187.709 32.104 186.941 32.52C186.173 32.904 185.565 33.528 185.117 34.392C184.669 35.224 184.445 36.28 184.445 37.56V51ZM226.962 51H221.154V15.288H226.962V51ZM236.609 27.288L244.337 49.176L241.169 55.176L230.417 27.288H236.609ZM231.041 61.992V57.144H234.545C235.313 57.144 235.985 57.048 236.561 56.856C237.137 56.696 237.649 56.376 238.097 55.896C238.577 55.416 238.977 54.712 239.297 53.784L249.137 27.288H255.185L243.569 56.28C242.705 58.456 241.617 60.04 240.305 61.032C238.993 62.024 237.361 62.52 235.409 62.52C234.577 62.52 233.793 62.472 233.057 62.376C232.353 62.312 231.681 62.184 231.041 61.992Z" fill="#575757"/>
</svg>
